<svg viewBox="0 0 16 18" fill="white" xmlns="http://www.w3.org/2000/svg">
<path d="M0.927734 4.28572H15.0706M4.85631 4.28572V2.7143C4.85631 2.29753 5.02187 1.89783 5.31657 1.60313C5.61127 1.30843 6.01097 1.14287 6.42774 1.14287H9.57059C9.98736 1.14287 10.3871 1.30843 10.6818 1.60313C10.9765 1.89783 11.142 2.29753 11.142 2.7143V4.28572M13.4992 4.28572V15.2857C13.4992 15.7025 13.3336 16.1022 13.0389 16.3969C12.7442 16.6916 12.3445 16.8571 11.9277 16.8571H4.07059C3.65382 16.8571 3.25412 16.6916 2.95942 16.3969C2.66472 16.1022 2.49916 15.7025 2.49916 15.2857V4.28572H13.4992Z" stroke="#868686" stroke-linecap="round" stroke-linejoin="round"/>
</svg>
