<svg width="17" height="17" viewBox="0 0 17 17" fill="none" xmlns="http://www.w3.org/2000/svg">
<path d="M13.2752 12.1551L16.6659 15.5451L15.5457 16.6653L12.1558 13.2746C10.8944 14.2857 9.32557 14.8356 7.70898 14.8333C3.77598 14.8333 0.583984 11.6413 0.583984 7.70834C0.583984 3.77534 3.77598 0.583344 7.70898 0.583344C11.642 0.583344 14.834 3.77534 14.834 7.70834C14.8363 9.32493 14.2863 10.8938 13.2752 12.1551ZM11.6871 11.5677C12.6918 10.5345 13.2529 9.14952 13.2507 7.70834C13.2507 4.64618 10.7704 2.16668 7.70898 2.16668C4.64682 2.16668 2.16732 4.64618 2.16732 7.70834C2.16732 10.7697 4.64682 13.25 7.70898 13.25C9.15016 13.2523 10.5351 12.6912 11.5684 11.6865L11.6871 11.5677V11.5677Z" fill="#C4C4C4"/>
</svg>
